<?xml version="1.0" encoding="iso-8859-1"?>
<!-- Uploaded to: SVG Repo, www.svgrepo.com, Generator: SVG Repo Mixer Tools -->
<!DOCTYPE svg PUBLIC "-//W3C//DTD SVG 1.1//EN" "http://www.w3.org/Graphics/SVG/1.1/DTD/svg11.dtd">
<svg fill="#000000" height="800px" width="800px" version="1.1" id="Capa_1" xmlns="http://www.w3.org/2000/svg" xmlns:xlink="http://www.w3.org/1999/xlink" 
	 viewBox="0 0 464.269 464.269" xml:space="preserve">
<g>
	<path d="M464.269,284.134c0-1.954-0.361-3.899-1.057-5.734c-0.623-1.699-32.101-61.458-34.632-66.265
		c-0.05-0.096-0.438-0.855-0.512-0.994c-1.664-3.15-4.353-6.16-8.033-9c-1.422-1.098-10.425-8.177-11.597-7.847
		c-0.26-1.667-0.766-3.479-1.941-5.274c-1.455-2.216-3.357-3.787-5.035-5.173c-0.813-0.673-1.585-1.31-2.269-1.979
		c-0.232-0.375-0.578-1.477-0.809-2.215c-0.725-2.314-1.717-5.485-4.488-7.52c-2.365-1.735-5.153-2.009-7.394-2.229
		c-0.97-0.095-2.435-0.238-2.893-0.501c-0.549-0.313-1.342-1.172-2.108-2.001c-1.405-1.521-3.155-3.413-5.648-4.563
		c-3.192-1.481-6.402-0.422-8.98,0.434c-0.691,0.229-1.676,0.555-2.248,0.658c-0.402-0.345-4.37-5.135-4.518-5.504
		c3.778-7.97,5.973-16.558,6.459-25.287c0.061-1.1,0.111-3.577,0.111-3.71c0-6.361-4.364-15.412-25.154-22.409
		c-14.525-4.888-33.739-7.58-54.102-7.58s-39.575,2.692-54.101,7.58c-20.785,6.995-25.152,16.043-25.154,22.404
		c0,0.004-0.001,0.007-0.001,0.011c0,10.463,2.484,20.828,7.207,30.278c-0.954,0.084-1.929,0.294-2.902,0.721
		c-0.956,0.424-2.125,0.774-3.363,1.145c-1.853,0.555-3.769,1.129-5.605,2.117c-3.359,1.816-4.265,5.586-4.926,8.338
		c-0.071,0.298-0.157,0.653-0.247,1c-1.101-0.707-2.35-1.342-3.797-1.681c-0.942-0.221-1.909-0.47-2.888-0.723
		c-1.95-0.502-3.967-1.021-6.027-1.396c-0.542-0.098-1.108-0.148-1.683-0.148c-2.025,0-3.83,0.6-5.422,1.128
		c-0.804,0.268-1.904,0.633-2.325,0.637c-0.967-0.129-1.979-0.188-3.185-0.188c-0.768,0-1.542,0.024-2.318,0.051
		c-1.237,0.041-2.554,0.073-3.496-0.01c-1.036-0.09-2.179-0.313-3.389-0.548c-1.65-0.322-3.521-0.687-5.495-0.771
		c-0.471-0.021-1.613-0.513-2.447-0.872c-1.768-0.762-3.968-1.71-6.511-1.71c-3.158,0-5.531,1.775-7.438,3.202
		c-0.513,0.384-1.254,0.938-1.671,1.163c-0.556-0.071-1.467-0.389-2.281-0.673c-1.655-0.578-3.53-1.232-5.698-1.232
		c-0.294,0-0.587,0.012-0.88,0.037c-3.549,0.308-5.83,3.016-7.495,4.992c-0.313,0.371-0.727,0.861-1.07,1.229
		c-0.444-0.175-1.006-0.438-1.428-0.636c-1.653-0.774-3.712-1.738-6.081-1.738c-0.507,0-1.011,0.045-1.498,0.133
		c-2.197,0.399-4.03,1.277-5.648,2.052c-1.038,0.497-2.019,0.967-2.797,1.149c-0.029,0.007-0.142,0.028-0.379,0.028
		c-0.574,0-1.355-0.122-2.182-0.251c-1.099-0.172-2.344-0.367-3.664-0.367c-1.118,0-2.13,0.137-3.094,0.419
		c-0.051,0.016-0.256,0.064-0.745,0.064c-0.556,0-1.229-0.062-1.941-0.126c-0.85-0.077-1.813-0.165-2.801-0.165
		c-1.508,0-2.817,0.207-4.002,0.634c-3.211,1.154-4.846,4.098-6.038,6.247c-0.313,0.564-0.765,1.378-1.055,1.765
		c-1.897,0.858-3.568,1.816-5.188,2.744c-0.757,0.434-1.51,0.865-2.276,1.277c-0.114,0.027-3.131,0.047-3.544,0.047
		c-1.839,0-4.217,0.178-6.308,1.563c-0.796,0.527-1.842,1.024-2.949,1.551c-1.762,0.837-3.758,1.786-5.461,3.222
		c-2.615,2.205-5.099,4.925-6.97,7.047c-2.731,3.097-1.855,7.14-1.217,10.092c0.13,0.599,0.31,1.428,0.384,1.983
		c-0.329,0.393-0.769,0.818-1.224,1.261c-1.366,1.326-3.237,3.143-4.06,5.96c-0.058,0.197-0.103,0.387-0.155,0.581L6.878,233.361
		c-4.031,1.355-6.729,4.979-6.872,9.229c-0.143,4.25,2.305,8.046,6.235,9.67l8.161,3.371c-0.03,0.399-0.057,0.799-0.057,1.199
		c0,3.725,1.258,7.186,3.556,10.391l29.289,55.973l2.895,5.69c6.198,13.399,29.331,21.663,47.673,26.239
		c25.079,6.258,57.297,9.704,90.719,9.704c36.315,0,70.569-3.983,96.452-11.216c24.463-6.836,39.034-15.924,42.649-26.492
		C394.461,326.64,464.269,311.61,464.269,284.134z M409.307,217.336c0.22-0.536,0.472-1.051,0.721-1.566
		c0.876-1.813,1.932-4.028,2.158-6.98c2.7,0.53,4.861,3.309,6.115,5.343c0.755,1.225,1.838,3.34,1.838,5.002
		c0,5.751-9.36,14.545-35.63,21.98c-24.171,6.843-56.221,10.72-90.526,10.994c-0.561-1.063-0.976-1.848-1.228-2.322
		c-0.753-1.632-1.77-3.227-3.056-4.782c2.944-2.415,4.405-6.117,3.854-9.993c-0.001-0.008-0.003-0.016-0.004-0.024
		c0.309,0.015,0.608,0.026,0.922,0.043c1.494,0.08,3.039,0.163,4.629,0.163c1.284,0,2.629,0.118,4.053,0.243
		c1.483,0.131,3.019,0.266,4.629,0.276c1.8-0.007,3.569-0.244,5.102-0.466c1.296-0.188,2.549-0.374,3.56-0.354
		c0.398,0.038,1.481,0.591,2.198,0.956c1.735,0.885,3.894,1.986,6.468,2.005c1.65,0.018,3.281-0.009,4.893-0.034
		c1.287-0.021,2.563-0.047,3.817-0.036c0.405,0.029,1.514,0.576,2.247,0.939c1.733,0.856,3.889,1.921,6.448,1.921
		c0.011,0,0.021,0,0.032,0c3.711-0.012,6.257-2.798,8.115-4.831c0.361-0.396,0.846-0.925,1.232-1.302
		c0.533,0.164,1.211,0.444,1.757,0.67c1.732,0.715,3.882,1.604,6.368,1.499c0.689-0.029,1.775,0.296,2.84,0.609
		c1.791,0.525,3.817,1.127,6.137,0.938c2.855-0.227,5.033-1.638,6.782-2.771c0.594-0.385,1.492-0.967,1.776-1.05
		c2.524-0.349,4.525-1.364,6.134-2.181c0.868-0.44,1.688-0.857,2.274-0.997c0.382-0.09,1.536,0.148,2.3,0.308
		c1.943,0.402,4.604,0.958,7.326-0.192c3.204-1.363,4.778-3.927,5.819-5.624c0.341-0.554,0.764-1.244,0.984-1.437
		c0.475-0.411,1.005-0.749,1.618-1.141C405.68,222.074,407.969,220.612,409.307,217.336z M281.114,250.398
		c1.767,1.855,3.232,4.097,3.232,6.433c0,5.443-7.657,11.66-21.009,17.059c-9.898,4.001-22.39,7.374-36.799,9.984L281.114,250.398z
		 M361.249,173.42c3.169,1.197,6.273,0.171,8.769-0.656c0.622-0.206,1.498-0.496,2.04-0.611c0.629,0.444,1.375,1.251,2.101,2.036
		c1.221,1.32,2.604,2.817,4.482,3.892c2.314,1.328,4.85,1.576,6.887,1.776c0.777,0.075,1.913,0.187,2.411,0.346
		c0.289,0.478,0.668,1.688,0.903,2.437c0.646,2.065,1.379,4.407,3.236,6.256c1.03,1.021,2.085,1.893,3.016,2.661
		c1.297,1.071,2.417,1.997,3.041,2.946c0.406,0.62,0.499,1.783,0.607,3.131c0.108,1.354,0.231,2.889,0.711,4.514
		c0.458,1.557,1.627,2.756,3.09,3.287c-0.189,0.706-0.305,1.447-0.305,2.229c0,1.188-0.416,2.104-1.214,3.754
		c-0.322,0.667-0.656,1.357-0.975,2.137c-0.11,0.27-0.19,0.372-1.425,1.161c-0.781,0.499-1.755,1.121-2.794,2.021
		c-1.385,1.208-2.251,2.619-2.947,3.754c-0.332,0.541-0.768,1.25-1.052,1.534c-0.396-0.041-1.063-0.18-1.534-0.278
		c-1.727-0.358-4.093-0.853-6.649-0.245c-1.744,0.416-3.202,1.155-4.487,1.809c-1.135,0.575-2.114,1.072-2.965,1.189
		c-2.402,0.326-4.319,1.568-5.859,2.566c-0.653,0.424-1.746,1.133-2.134,1.194c-0.458,0.043-1.612-0.296-2.528-0.564
		c-1.667-0.489-3.75-1.096-6.049-1.007c-0.378-0.015-1.449-0.457-2.158-0.75c-1.733-0.716-3.872-1.623-6.43-1.563
		c-3.529,0.063-5.875,2.63-7.759,4.691c-0.385,0.421-0.9,0.985-1.313,1.382c-0.458-0.189-1.037-0.476-1.473-0.69
		c-1.772-0.875-3.977-1.965-6.628-1.974c-1.344,0.003-2.67,0.017-4.024,0.038c-1.525,0.024-3.061,0.052-4.588,0.035
		c-0.375-0.052-1.396-0.571-2.07-0.916c-1.772-0.904-3.979-2.029-6.632-2.047c-1.811,0.004-3.486,0.223-5.102,0.456
		c-1.305,0.188-2.515,0.363-3.617,0.363c-1.19-0.008-2.461-0.12-3.807-0.238c-1.576-0.138-3.205-0.281-4.928-0.281
		c-1.321,0-2.669-0.072-4.095-0.148c-1.532-0.082-3.105-0.153-4.745-0.161c-1.858,0.011-3.544,0.496-4.996,1.002l-28.486-7.804
		c-1.127-1.289-2.479-2.174-3.518-2.846c-0.392-0.252-0.925-0.597-1.261-0.85c0.039-0.477,0.139-1.143,0.211-1.633
		c0.38-2.551,0.954-6.406-1.648-9.358c-1.786-2.025-4.192-2.562-6.38-2.705c0.985-0.592,1.928-1.114,2.823-1.432
		c0.889-0.313,1.772-0.645,2.656-0.977c2.075-0.779,4.034-1.515,5.93-1.963c0.749-0.171,1.51-0.373,2.237-0.582l1.266-0.364
		c1.794-0.52,3.488-1.01,5.066-1.209c1.806-0.229,3.734-0.256,5.776-0.284c1.043-0.014,2.082-0.029,3.107-0.069
		c2.499-0.097,5.771-0.194,8.914-0.08c1.716,0.069,3.325-0.066,4.883-0.194c1.536-0.125,2.985-0.245,4.157-0.129
		c1.524,0.16,3.005,0.215,4.437,0.269c1.68,0.063,3.266,0.121,4.665,0.347c0.468,0.074,1.7,0.971,2.437,1.506
		c1.629,1.185,3.475,2.527,5.901,3.049c2.486,0.522,4.841,0.184,6.733-0.09c0.879-0.128,2.204-0.323,2.637-0.215
		c1.714,0.447,3.368,1.101,4.968,1.731c1.237,0.488,2.406,0.949,3.59,1.319c3.034,0.957,3.714,1.288,4.742,1.788
		c0.771,0.376,1.732,0.844,3.534,1.57c0.612,0.247,1.245,0.363,1.867,0.363c1.979,0,3.854-1.183,4.64-3.132
		c1.032-2.561-0.207-5.474-2.769-6.507c-1.477-0.596-2.198-0.946-2.896-1.286c-1.471-0.715-2.552-1.211-6.123-2.338
		c-0.252-0.079-0.521-0.172-0.797-0.27c2.394-1.336,4.722-2.78,6.962-4.352c7.66-5.366,14.085-11.84,19.148-19.28
		c0.328,0.347,0.675,0.744,0.953,1.063C356.993,170.511,358.696,172.462,361.249,173.42z M226.503,159.243
		c-2.451-4.087-4.378-8.42-5.762-12.896c3.313,1.908,7.443,3.762,12.58,5.49c14.525,4.889,33.738,7.581,54.101,7.581
		s39.576-2.692,54.102-7.581c5.137-1.729,9.269-3.583,12.582-5.492c-1.363,4.412-3.255,8.685-5.654,12.718
		c-0.052,0.075-0.491,0.795-0.665,1.074c-4.521,7.24-10.727,13.736-18.001,18.832c-5.929,4.159-12.507,7.394-19.553,9.615
		c-0.029,0.009-0.053,0.025-0.082,0.035c-0.492-0.278-1.213-0.802-1.733-1.18c-1.743-1.269-3.913-2.847-6.741-3.295
		c-1.991-0.321-3.965-0.395-5.873-0.465c-1.323-0.05-2.573-0.096-3.79-0.224c-2.102-0.21-4.082-0.047-5.993,0.111
		c-1.319,0.108-2.564,0.209-3.69,0.167c-3.484-0.124-7.001-0.022-9.676,0.081c-0.944,0.037-1.898,0.05-2.857,0.063
		c-2.229,0.031-4.533,0.063-6.893,0.362c-2.154,0.271-4.141,0.819-6.064,1.374c-3.936-1.754-7.688-3.826-11.166-6.221
		C237.828,174.042,231.199,167.073,226.503,159.243z M287.421,109.439c42.265,0,69.24,11.832,69.255,19.983
		c0,0.004-0.001,0.008-0.001,0.013c0,0.005,0,0.011,0,0.016c-0.048,8.15-27.015,19.968-69.254,19.968
		c-42.276,0-69.255-11.84-69.255-19.99S245.145,109.439,287.421,109.439z M208.885,172.193c0.866-0.369,1.953-0.694,3.09-1.035
		c1.424-0.426,2.894-0.866,4.351-1.496c0.427-0.014,1.465,0.146,2.156,0.26c1.042,0.17,2.21,0.36,3.444,0.392
		c4.952,6.64,11.104,12.56,18.093,17.328c1.134,0.781,2.294,1.534,3.477,2.259c-1.859,0.683-3.483,1.618-4.946,2.512
		c-0.512-0.752-1.167-1.436-2.022-2.002c-2.399-1.591-5.09-1.661-7.251-1.718c-0.801-0.021-2.011-0.052-2.346-0.183
		c-0.844-0.451-1.717-1.007-2.641-1.595c-1.513-0.963-3.228-2.054-5.204-2.921c-0.684-0.299-1.541-0.934-2.449-1.604
		c-1.503-1.112-3.206-2.372-5.403-3.162c-0.913-0.327-1.831-0.688-2.76-1.052c-0.376-0.147-0.77-0.293-1.152-0.441
		c0.431-1.137,0.721-2.304,0.976-3.366C208.46,173.699,208.685,172.764,208.885,172.193z M50.245,224.278
		c0.083-0.284,0.924-1.101,1.427-1.589c1.01-0.98,2.266-2.2,3.26-3.895c1.649-2.813,0.95-6.044,0.388-8.641
		c-0.129-0.596-0.322-1.489-0.401-2.1c1.54-1.723,3.417-3.724,5.261-5.278c0.716-0.603,2.033-1.229,3.308-1.835
		c1.236-0.587,2.629-1.249,3.949-2.096c0.146-0.021,2.893-0.014,3.313-0.014c1.677,0,3.861-0.14,5.886-1.224
		c0.877-0.469,1.739-0.962,2.605-1.458c1.571-0.9,3.055-1.75,4.623-2.437c2.802-1.228,4.238-3.816,5.394-5.896
		c0.298-0.537,0.716-1.29,1.023-1.728c0.076-0.004,0.167-0.007,0.273-0.007c0.534,0,1.196,0.061,1.897,0.124
		c0.86,0.078,1.836,0.167,2.845,0.167c1.32,0,3.631-0.483,3.839-0.483c0.542,0,1.307,0.12,2.116,0.246
		c1.114,0.175,2.377,0.372,3.729,0.372c0.95,0,1.82-0.095,2.66-0.292c1.837-0.431,3.43-1.193,4.835-1.866
		c1.044-0.5,2.034-0.975,2.861-1.178c0.425,0.121,1.243,0.505,1.806,0.769c1.677,0.785,3.764,1.763,6.182,1.763
		c0.383,0,0.766-0.025,1.138-0.075c3.314-0.439,5.396-2.909,7.067-4.894c0.361-0.43,0.855-1.017,1.231-1.398
		c0.537,0.124,1.273,0.381,1.898,0.599c1.591,0.556,3.571,1.247,5.78,1.247c0.15,0,0.3-0.003,0.448-0.01
		c2.952-0.125,5.202-1.809,7.01-3.16c0.519-0.389,1.265-0.946,1.696-1.18c0.569,0.115,1.556,0.54,2.305,0.863
		c1.635,0.704,3.669,1.581,5.979,1.679c1.224,0.053,2.576,0.316,4.008,0.596c1.413,0.275,2.875,0.561,4.438,0.695
		c1.378,0.119,3.055,0.097,4.695,0.041c0.664-0.021,1.326-0.045,1.982-0.045c0.755,0,1.349,0.032,1.87,0.102
		c0.418,0.055,0.851,0.083,1.286,0.083c2.066,0,3.894-0.606,5.506-1.143c0.723-0.239,1.806-0.6,2.238-0.617
		c1.683,0.31,3.494,0.776,5.247,1.228c1.051,0.271,2.089,0.537,3.101,0.774c0.435,0.102,1.521,0.945,2.241,1.504
		c1.491,1.158,3.183,2.47,5.404,3.121c1.612,0.472,3.224,1.104,4.931,1.772c1.018,0.398,2.026,0.793,3.026,1.152
		c0.813,0.293,1.798,1.021,2.839,1.79c1.251,0.926,2.669,1.975,4.381,2.725c1.271,0.558,2.524,1.354,3.851,2.198
		c1.039,0.661,2.113,1.346,3.29,1.976c2.329,1.246,4.811,1.311,6.804,1.362c0.396,0.01,0.898,0.023,1.334,0.052
		c0.072,0.515,0.133,1.125,0.179,1.598c0.262,2.67,0.587,5.991,3.164,8.166c2.527,2.131,5.69,2.132,8.232,2.132
		c0.149,0,0.315,0,0.486,0.001c-0.031,0.227-0.064,0.448-0.094,0.644c-0.35,2.348-0.784,5.27,0.767,7.914
		c1.296,2.212,3.291,3.501,4.748,4.441c0.271,0.176,0.621,0.401,0.91,0.604c-0.135,0.33-0.313,0.719-0.45,1.02
		c-0.708,1.547-1.59,3.472-1.59,5.857c0,3.354,2.227,5.917,4.379,8.168c-2.17,0.537-4.544,1.204-6.3,2.872
		c-1.167,1.107-1.992,2.351-2.72,3.447c-0.612,0.923-1.306,1.968-1.789,2.184c-1.898,0.849-3.344,2.271-4.618,3.527
		c-0.673,0.662-1.8,1.771-2.261,1.927c-1.261,0.302-2.931,0.43-4.697,0.565c-1.232,0.095-2.504,0.193-3.796,0.359
		c-0.416-0.062-1.409-0.466-2.076-0.736c-1.87-0.761-4.295-1.72-6.932-1.53c-0.852,0.061-1.713,0.129-2.585,0.199
		c-1.966,0.157-3.999,0.32-6.033,0.389l-2.027,0.071c-2.174,0.079-4.423,0.16-6.73,0.186c-0.836,0-1.956-0.256-3.142-0.526
		c-1.644-0.376-3.507-0.801-5.6-0.805c-2.152,0-4.056,0.579-5.735,1.09c-0.993,0.303-1.939,0.59-2.685,0.668
		c-0.419-0.254-1.116-0.807-1.604-1.193c-1.92-1.523-4.31-3.419-7.607-3.448c-3.482,0-5.912,2.4-7.863,4.33
		c-0.481,0.476-1.16,1.146-1.606,1.499c-0.96-0.046-1.995-0.172-3.079-0.304c-1.627-0.198-3.311-0.403-5.138-0.403
		c-2.357,0-4.455,0.743-6.141,1.34c-1.045,0.37-2.126,0.753-2.74,0.757h-0.006c-0.577,0-1.694-0.418-2.681-0.787
		c-1.676-0.627-3.76-1.407-6.199-1.407c0,0-0.001,0-0.002,0c-0.416-0.014-1.579-0.554-2.348-0.912
		c-1.746-0.811-3.918-1.82-6.539-1.82c-2.67,0.021-4.895,1.14-6.682,2.038c-0.711,0.357-1.785,0.897-2.145,0.94
		c-0.809,0-1.936-0.328-3.128-0.676c-1.667-0.486-3.557-1.037-5.749-1.053c-2.632,0-4.854,1.06-6.639,1.911
		c-0.712,0.339-1.789,0.853-2.104,0.893c-0.417-0.048-1.534-0.669-2.273-1.08c-1.705-0.948-3.826-2.127-6.384-2.256
		c-0.703-0.035-1.808-0.507-2.876-0.963c-1.603-0.684-3.419-1.459-5.566-1.65c-0.258-0.022-0.517-0.034-0.775-0.034
		c-2.667,0-4.909,1.178-6.712,2.124c-0.558,0.293-1.368,0.719-1.791,0.862c-0.578-0.07-1.175-0.105-1.813-0.105
		c-1.35,0-2.636,0.16-3.77,0.301c-0.878,0.108-1.707,0.211-2.343,0.211c-0.355,0-0.518-0.033-0.561-0.044
		c-1.511-0.373-3.222-1.232-4.876-2.064c-0.957-0.48-1.946-0.978-2.927-1.396c-0.508-0.217-1.472-1.555-2.109-2.44
		c-0.866-1.203-1.848-2.566-3.158-3.66c-1.177-0.983-1.808-2.343-2.82-4.661l-0.323-0.735c-0.722-1.63-0.854-3.356-0.854-6.167
		C49.426,228.694,49.565,226.605,50.245,224.278z M10.065,242.84l29.386-9.884c0.075,2.728,0.395,5.462,1.683,8.374l0.305,0.694
		c1.186,2.715,2.53,5.791,5.573,8.331c0.342,0.285,0.959,1.142,1.454,1.83c1.363,1.893,3.23,4.484,6.301,5.794
		c0.692,0.295,1.502,0.702,2.358,1.133c2.049,1.029,4.37,2.195,6.97,2.837c0.913,0.227,1.881,0.336,2.958,0.336
		c1.253,0,2.432-0.146,3.572-0.287c1.264-0.156,2.503-0.287,3.223-0.182c0.391,0.059,0.792,0.088,1.194,0.088
		c2.504,0,4.651-1.128,6.377-2.034c0.682-0.357,1.703-0.895,2.039-0.973c0.577,0.082,1.523,0.486,2.439,0.877
		c1.699,0.726,3.814,1.629,6.242,1.748c0.383,0.067,1.406,0.637,2.084,1.014c1.817,1.011,4.08,2.269,6.867,2.335l0.227,0.003
		c2.537,0,4.706-1.034,6.448-1.865c0.766-0.365,1.922-0.917,2.332-0.937c0.73,0.005,1.81,0.32,2.952,0.653
		c1.73,0.504,3.69,1.075,5.962,1.075c2.628-0.008,4.831-1.116,6.602-2.006c0.745-0.375,1.871-0.941,2.252-0.973
		c0.402,0.025,1.521,0.545,2.262,0.89c1.767,0.82,3.965,1.843,6.651,1.843c0,0,0.001,0,0.002,0c0.539,0,1.637,0.41,2.605,0.773
		c1.693,0.633,3.8,1.421,6.187,1.421c0.01,0,0.057,0,0.066,0c2.301-0.014,4.275-0.713,6.018-1.33
		c1.063-0.377,2.163-0.767,2.802-0.767c1.221,0,2.536,0.16,3.929,0.33c1.552,0.188,3.155,0.384,4.911,0.395
		c3.558-0.001,6.028-2.442,8.013-4.404c0.316-0.313,0.72-0.712,1.081-1.043c0.381,0.276,0.811,0.617,1.146,0.884
		c1.884,1.493,4.227,3.353,7.373,3.378c0.014,0,0.091,0,0.105,0c2.253,0,4.209-0.595,5.936-1.12
		c1.062-0.323,2.159-0.657,2.828-0.657c0.953,0.002,2.127,0.27,3.37,0.554c1.597,0.364,3.405,0.777,5.367,0.777
		c0.019,0,0.134-0.001,0.152-0.001c2.391-0.026,4.703-0.11,6.939-0.19l2.002-0.071c2.266-0.076,4.416-0.248,6.496-0.415
		c0.842-0.067,1.673-0.134,2.485-0.191c0.452,0,1.665,0.492,2.467,0.818c1.705,0.693,3.637,1.479,5.865,1.479
		c0.395,0,0.787-0.026,1.167-0.076c1.061-0.141,2.184-0.227,3.372-0.318c2.078-0.159,4.227-0.325,6.257-0.811
		c3.107-0.743,5.238-2.841,6.951-4.527c0.547-0.539,1.375-1.354,1.683-1.523c3.131-1.398,4.813-3.933,6.04-5.782
		c0.393-0.592,0.797-1.2,1.122-1.568c0.498-0.215,1.646-0.496,2.431-0.688c3.135-0.766,7.427-1.814,8.935-5.952
		c1.538-4.218-1.706-7.58-4.074-10.035c-0.592-0.613-1.5-1.556-1.978-2.185c0.145-0.388,0.38-0.901,0.555-1.283
		c0.103-0.225,0.213-0.466,0.324-0.718l25.235,6.913c0.152,0.042,0.616,0.169,0.707,0.803c0.09,0.633-0.32,0.885-0.455,0.968
		l-101.925,62.52c-8.439,5.178-18.942,6.011-28.095,2.23L10.012,243.011C9.994,242.974,9.998,242.88,10.065,242.84z M83.178,284.043
		c-29.576-5.272-49.142-13.378-56.042-21.159c-0.233-0.263-1.627-2.147-1.95-2.797L83.178,284.043z M318.47,321.992
		c-0.158,5.78-9.759,14.593-36.231,21.99c-25.031,6.994-58.329,10.847-93.761,10.847c-32.63,0-63.988-3.341-88.298-9.406
		c-22.31-5.566-37.651-13.337-41.041-20.785c-0.03-0.065-0.062-0.131-0.095-0.195l-2.966-5.832L36.28,280.773
		c20.628,9.697,52.612,15.416,81.781,17.68l31.297,12.929c5.018,2.073,10.342,3.097,15.651,3.097
		c7.494-0.001,14.96-2.04,21.49-6.046l18.473-11.331c25.032-2.816,46.495-7.628,62.112-13.941
		c11.519-4.657,19.406-9.944,23.627-15.791c9.27,17.635,26.006,49.498,27.389,52.356c0.247,0.691,0.37,1.367,0.376,2.095
		C318.474,321.878,318.472,321.935,318.47,321.992z M418.374,306.191c-24.248,6.826-56.316,10.673-90.62,10.919
		c-0.105-0.343-0.209-0.686-0.336-1.023c-0.219-0.595-0.472-1.276-28.208-54.044c33.239-0.615,64.24-4.574,88.023-11.306
		c19.997-5.661,33.271-12.836,39.256-21.097c10.154,19.311,26.064,49.622,27.403,52.39c0.253,0.709,0.376,1.398,0.376,2.104
		C454.269,289.913,444.839,298.742,418.374,306.191z"/>
	<path d="M117.586,204.665c0.48-0.146,1.972,0.085,2.959,0.238c1.906,0.297,4.281,0.669,6.719,0.123
		c1.626-0.363,3.092-0.878,4.51-1.375c1.535-0.539,2.985-1.048,4.287-1.215c0.91-0.116,1.821-0.25,2.732-0.384
		c2.212-0.325,4.302-0.633,6.302-0.668c1.249-0.021,2.469-0.104,3.647-0.184c1.847-0.123,3.592-0.242,5.158-0.106
		c1.834,0.159,3.742,0.543,5.764,0.95c1,0.201,1.996,0.4,2.987,0.576c2.64,0.467,5.741,1.047,8.736,1.812
		c1.647,0.42,3.23,0.632,4.763,0.837c1.537,0.206,2.989,0.4,4.146,0.777c1.433,0.466,2.845,0.829,4.212,1.18
		c1.646,0.423,3.201,0.822,4.525,1.338c0.468,0.183,1.457,1.273,2.111,1.995c1.344,1.482,2.866,3.161,5.1,4.166
		c2.306,1.037,4.67,1.216,6.569,1.359c0.893,0.067,2.241,0.169,2.628,0.362c1.605,0.816,3.102,1.811,4.548,2.773
		c1.089,0.724,2.117,1.407,3.187,2.018c2.782,1.586,3.379,2.053,4.283,2.759c0.673,0.525,1.51,1.18,3.104,2.26
		c0.86,0.583,1.835,0.862,2.801,0.862c1.603-0.001,3.177-0.77,4.144-2.195c1.55-2.286,0.952-5.396-1.333-6.944
		c-1.315-0.892-1.947-1.386-2.56-1.863c-1.285-1.004-2.237-1.713-5.483-3.564c-0.771-0.439-1.661-1.032-2.604-1.659
		c-1.607-1.068-3.429-2.279-5.554-3.359c-2.161-1.099-4.416-1.27-6.405-1.42c-1.236-0.094-2.516-0.19-3.214-0.504
		c-0.372-0.191-1.231-1.139-1.801-1.767c-1.438-1.586-3.228-3.56-5.891-4.597c-1.884-0.733-3.807-1.228-5.667-1.705
		c-1.271-0.327-2.474-0.636-3.605-1.004c-2.022-0.658-4.001-0.923-5.914-1.179c-1.304-0.175-2.535-0.34-3.614-0.615
		c-3.315-0.847-6.648-1.471-9.471-1.97c-0.914-0.161-1.833-0.347-2.756-0.532c-2.201-0.443-4.477-0.9-6.869-1.109
		c-2.339-0.201-4.555-0.053-6.699,0.093c-1.104,0.074-2.146,0.145-3.146,0.162c-2.645,0.046-5.156,0.415-7.584,0.772
		c-0.851,0.125-1.699,0.25-2.549,0.359c-2.347,0.301-4.461,1.042-6.326,1.696c-1.197,0.42-2.328,0.817-3.38,1.052
		c-0.586,0.133-1.867-0.067-2.997-0.244c-2.116-0.329-4.752-0.739-7.434,0.082c-2.64,0.811-4.123,3.607-3.313,6.247
		C112.149,203.992,114.949,205.471,117.586,204.665z"/>
	<path d="M67.481,230.703c1.035,0,2.079-0.32,2.974-0.983c2.893-2.145,3.65-4.73,4.103-6.275c0.223-0.762,0.309-1.055,0.56-1.305
		c0.305,0.036,0.679,0.093,0.965,0.137c2.065,0.312,5.19,0.786,8.146-0.917l0.967-0.558c1.946-1.126,3.96-2.29,6.124-3.417
		c2.449-1.276,3.4-4.296,2.125-6.744c-1.276-2.45-4.299-3.399-6.744-2.125c-2.359,1.229-4.564,2.504-6.51,3.629l-0.767,0.442
		c-0.416,0.027-1.257-0.108-1.842-0.197c-1.992-0.303-4.725-0.718-7.25,0.889c-3.953,2.512-4.841,5.544-5.372,7.355
		c-0.094,0.323-0.237,0.812-0.308,0.921c-0.001,0.001-0.037,0.047-0.152,0.132c-2.219,1.645-2.684,4.776-1.039,6.994
		C64.441,230.004,65.951,230.703,67.481,230.703z"/>
	<path d="M351.558,189.473c-1.496,2.32-0.828,5.415,1.492,6.912c3.024,1.95,5.709,1.75,7.318,1.628
		c0.792-0.059,1.096-0.081,1.418,0.064c0.073,0.298,0.151,0.668,0.212,0.95c0.434,2.044,1.09,5.135,3.727,7.303l0.901,0.74
		c1.727,1.416,3.513,2.881,5.316,4.497c0.954,0.855,2.146,1.276,3.335,1.276c1.372,0,2.738-0.562,3.726-1.663
		c1.843-2.056,1.67-5.217-0.387-7.061c-1.967-1.763-3.924-3.367-5.65-4.783l-0.723-0.593c-0.16-0.366-0.341-1.215-0.463-1.793
		c-0.419-1.973-0.992-4.675-3.386-6.475c-3.744-2.814-6.893-2.576-8.777-2.436c-0.336,0.026-0.843,0.063-0.971,0.036
		c0,0-0.057-0.019-0.177-0.097C356.148,186.483,353.054,187.152,351.558,189.473z"/>
	<path d="M104.614,240.018c0.498,0,1.006-0.075,1.507-0.233c3.941-1.244,5.078-4.033,5.261-6.426
		c0.853,0.178,1.838,0.416,2.611,0.604c3.224,0.78,6.563,1.587,9.332,1.205c2.456-0.339,4.557-1.737,6.41-2.972
		c0.857-0.57,2.256-1.501,2.899-1.688c0.383,0.128,1.144,0.538,1.664,0.82c1.755,0.947,4.171,2.267,7.144,2.166
		c2.899-0.077,5.99-0.147,9.107-0.059c1.539,0.042,3.029-0.052,4.471-0.144c1.663-0.105,3.233-0.204,4.685-0.084
		c1.31,0.109,2.623,0.159,3.894,0.206c1.849,0.069,3.594,0.135,5.257,0.37c0.617,0.087,1.758,0.733,2.764,1.304
		c1.653,0.938,3.526,1.999,5.828,2.463c2.063,0.416,4.04,0.285,5.783,0.169c1.367-0.09,2.658-0.175,3.495,0.046
		c2.668,0.713,5.407-0.884,6.113-3.553c0.707-2.669-0.883-5.406-3.553-6.113c-2.423-0.642-4.703-0.492-6.718-0.357
		c-1.229,0.08-2.388,0.158-3.146,0.006c-0.734-0.148-1.821-0.764-2.872-1.359c-1.78-1.01-3.799-2.153-6.296-2.507
		c-2.174-0.307-4.263-0.385-6.282-0.46c-1.211-0.046-2.354-0.089-3.436-0.179c-2.181-0.182-4.288-0.048-6.149,0.069
		c-1.275,0.081-2.475,0.16-3.56,0.127c-3.37-0.096-6.616-0.022-9.644,0.059c-0.376-0.02-1.476-0.613-2.132-0.969
		c-1.761-0.95-4.168-2.248-7.111-2.015c-3.081,0.25-5.669,1.973-7.748,3.357c-0.735,0.489-1.832,1.22-2.311,1.396
		c-1.004,0.063-3.835-0.613-5.538-1.025c-3.209-0.776-5.98-1.449-8.313-0.98c-2.701,0.54-6.999,2.301-6.744,8.021
		c-1.423,1.271-2.052,3.302-1.439,5.239C100.521,238.654,102.49,240.018,104.614,240.018z"/>
	<path d="M231.076,137.64c14.065,6.772,71.991,8.338,78.55,8.494c0.041,0.001,0.081,0.001,0.121,0.001
		c2.706,0,4.932-2.161,4.997-4.881c0.065-2.761-2.119-5.052-4.88-5.118c-23.498-0.559-60.787-2.808-72.621-6.781
		c2.923-1.192,7.321-2.496,11.468-3.313c2.708-0.534,4.473-3.163,3.939-5.872c-0.534-2.708-3.16-4.469-5.869-3.94
		c-14.003,2.751-21.458,6.918-22.159,12.387C224.297,131.157,225.152,134.787,231.076,137.64z"/>
	<path d="M278.431,122.427c11.692,0.172,42.079,1.473,55.383,5.368c-1.768,0.361-3.725,0.673-5.582,0.866
		c-2.746,0.283-4.743,2.74-4.46,5.487c0.266,2.572,2.437,4.487,4.968,4.486c0.171,0,0.345-0.009,0.52-0.026
		c18.043-1.862,19.007-7.382,19.324-9.196c0.643-3.683-1.648-6.811-6.812-9.296c-14.087-6.782-58.21-7.615-63.194-7.688
		c-0.025-0.001-0.05-0.001-0.075-0.001c-2.727,0-4.957,2.19-4.997,4.927C273.464,120.116,275.67,122.387,278.431,122.427z"/>
</g>
</svg>